<svg width="675" height="766" viewBox="0 0 675 766" fill="none" xmlns="http://www.w3.org/2000/svg">
<g clip-path="url(#clip0_164_301)" filter="url(#filter0_f_164_301)">
<path d="M52.8167 656.284C52.8167 655.829 52.8167 655.373 53.9551 650.13C55.0935 644.886 57.3703 634.868 83.8159 574.153C110.262 513.438 160.807 402.329 187.756 338.716C214.705 275.103 216.527 262.353 217.238 251.231C217.948 240.109 217.493 231.001 215.665 225.171C213.836 219.341 210.649 217.065 208.096 215.892C205.543 214.719 203.722 214.719 201.189 215.629C198.657 216.54 195.47 218.362 185.859 236.832C176.248 255.301 160.31 290.364 150.734 313.664C141.157 336.963 138.425 347.437 135.652 361.939C132.878 376.442 130.146 394.657 128.738 407.91C126.516 428.835 127.786 439.613 129.614 444.208C130.47 446.359 133.264 446.982 138.08 446.54C150.34 445.416 170.439 433.749 196.588 414.72C210.29 404.749 223.647 392.504 236.604 380.03C249.562 367.556 261.401 354.805 291.862 313.402C322.323 271.998 371.047 202.327 390.455 173.267C409.863 144.206 398.479 157.867 386.923 173.329C375.366 188.791 363.982 205.639 347.417 235.265C330.851 264.892 309.449 306.785 292.504 344.987C275.559 383.19 263.719 416.431 257.848 438.565C251.976 460.698 252.432 470.716 254.26 477.698C256.088 484.681 259.276 488.324 264.106 490.2C268.935 492.077 275.31 492.077 297.037 484.336C318.763 476.595 355.648 461.112 414.721 429.002C473.794 396.892 553.938 348.623 595.907 323.53C637.877 298.437 639.243 297.981 553.427 351.252C467.612 404.523 294.574 511.533 190.861 524.311C87.1483 537.089 58.005 452.391 38.6659 386.446C19.3267 320.501 10.6748 275.876 6.21773 251.293C1.76068 226.71 1.76068 223.522 28.1718 275.841C54.5829 328.16 107.405 436.081 144.407 524.008C181.409 611.934 200.989 676.596 211.532 713.094C222.074 749.592 222.985 755.967 222.316 759.024C221.646 762.08 219.37 761.625 216.375 758.43C213.381 755.236 209.738 749.316 205.812 734.655C201.886 719.994 197.788 696.77 195.904 662.038C194.021 627.306 194.476 581.77 198.809 529.396C203.142 477.022 211.339 419.191 225.351 362.305C239.364 305.419 258.945 251.231 277.228 208.061C295.512 164.891 311.905 134.382 329.685 105.004C347.465 75.6257 366.135 48.3039 379.168 31.0414C392.201 13.779 399.031 7.40391 405.282 5.0305C411.533 2.65708 416.998 4.47854 421.179 9.51514C425.36 14.5517 428.092 22.7483 429.727 35.6227C431.362 48.4971 431.818 65.8009 425.905 90.6527C419.992 115.505 407.697 147.38 356.51 231.878C305.323 316.375 215.616 452.529 170.77 522.441C125.923 592.354 128.655 591.898 167.63 568.668C206.606 545.437 281.741 499.446 350.045 462.32C418.35 425.194 477.547 398.327 526.713 379.022C575.878 359.718 613.218 348.789 635.414 343.159C657.609 337.529 663.529 337.529 667.034 339.351C670.539 341.172 671.449 344.815 669.87 352.156C668.29 359.497 664.191 370.426 658.437 383.341C652.683 396.257 645.397 410.829 621.836 444.747C598.274 478.664 558.657 531.487 513.204 583.971C467.75 636.455 417.66 687 388.668 715.543C359.677 744.086 353.302 749.095 350.018 750.765C346.733 752.435 346.733 750.613 347.189 748.992C347.644 747.371 348.555 746.004 349.479 744.618C350.404 743.231 351.315 741.865 352.253 740.457" stroke="#B68DEA" stroke-opacity="0.3" stroke-width="2" stroke-linecap="round"/>
<path d="M272.157 154.654C274.158 156.189 278.198 159.922 280.834 162.323C281.46 162.873 281.921 163.18 282.542 163.722C283.164 164.264 283.932 165.032 284.723 165.823" stroke="#B68DEA" stroke-opacity="0.3" stroke-width="2" stroke-linecap="round"/>
<path d="M272.622 154.188C272.93 153.262 274.782 151.098 277.114 149.462C278.971 148.159 279.752 145.82 281.458 143.57C281.893 142.996 282.387 142.562 282.778 142.632C284.872 143.006 285.486 146.881 286.813 149.448C288.073 151.888 290.606 152.941 291.781 154.493C292.209 155.058 290.312 155.58 289.461 156.508C288.446 158.833 287.985 161.318 287.21 162.479C286.896 163.026 286.743 163.487 286.585 163.962" stroke="#B68DEA" stroke-opacity="0.3" stroke-width="2" stroke-linecap="round"/>
<path d="M287.981 137.899C288.6 138.825 289.833 140.375 292.007 142.853C294.4 145.583 297.745 149.059 298.606 150.386C298.663 150.474 298.685 149.702 298.455 149.232C297.417 147.114 294.971 145.662 293.801 143.57C294.185 141.627 294.804 140.077 295.346 138.916C295.581 138.369 295.734 137.908 295.893 136.968" stroke="#B68DEA" stroke-opacity="0.3" stroke-width="2" stroke-linecap="round"/>
<path d="M296.648 126.75C296.949 127.11 297.43 127.832 298.003 128.617C298.896 129.84 299.722 130.367 300.113 130.519C301.12 130.911 301.711 129.407 302.466 128.563C303.253 127.684 303.701 126.696 304.396 125.969C305.068 125.266 305.692 124.463 306.416 123.677C307.141 122.893 307.744 122.05 307.927 121.653C307.868 121.8 307.689 122.278 307.324 122.951" stroke="#B68DEA" stroke-opacity="0.3" stroke-width="2" stroke-linecap="round"/>
<path d="M305.333 127.655C305.513 128.075 306.115 128.918 306.748 129.492C306.9 129.644 307.02 129.823 307.171 129.975C307.322 130.127 307.501 130.246 307.867 130.731" stroke="#B68DEA" stroke-opacity="0.3" stroke-width="2" stroke-linecap="round"/>
<path d="M304.429 136.702C305.151 135.92 306.231 134.719 307.14 133.66C307.768 132.928 308.587 132.425 309.221 131.369C310.114 129.882 310.939 128.867 311.784 127.719C311.967 127.476 312.086 127.297 312.237 127.145C312.388 126.993 312.567 126.873 313.114 126.388" stroke="#B68DEA" stroke-opacity="0.3" stroke-width="2" stroke-linecap="round"/>
<path d="M305.333 114.627C305.513 114.206 306.354 113.726 306.84 113.032C307.439 112.175 309.064 111.135 310.486 109.897C310.748 109.668 310.939 109.623 311.151 109.652C312.634 109.854 313.653 112.272 314.348 113.176C315.021 114.053 315.824 114.685 316.399 115.469C316.55 115.652 316.729 115.771 316.911 115.892C317.093 116.013 317.272 116.133 317.456 116.256" stroke="#B68DEA" stroke-opacity="0.3" stroke-width="2" stroke-linecap="round"/>
<path d="M311.124 116.437C311.422 116.138 311.721 115.84 312.083 115.477C312.446 115.114 312.864 114.696 313.199 114.361C313.534 114.027 313.773 113.788 314.019 113.361" stroke="#B68DEA" stroke-opacity="0.3" stroke-width="2" stroke-linecap="round"/>
<path d="M314.38 117.703C314.5 117.703 314.621 117.883 314.831 118.243C314.981 118.425 315.22 118.604 315.373 118.786C315.526 118.968 315.586 119.147 315.828 119.513" stroke="#B68DEA" stroke-opacity="0.3" stroke-width="2" stroke-linecap="round"/>
<path d="M314.319 122.309C316.161 120.572 317.189 119.572 317.492 119.189C317.714 118.909 318.086 118.464 318.617 117.746C319.834 116.056 320.617 114.895 320.79 114.603C320.883 114.469 320.988 114.363 321.176 114.175" stroke="#B68DEA" stroke-opacity="0.3" stroke-width="2" stroke-linecap="round"/>
</g>
<defs>
<filter id="filter0_f_164_301" x="0" y="0" width="675" height="766" filterUnits="userSpaceOnUse" color-interpolation-filters="sRGB">
<feFlood flood-opacity="0" result="BackgroundImageFix"/>
<feBlend mode="normal" in="SourceGraphic" in2="BackgroundImageFix" result="shape"/>
<feGaussianBlur stdDeviation="1.5" result="effect1_foregroundBlur_164_301"/>
</filter>
<clipPath id="clip0_164_301">
<rect width="669" height="760" fill="white" transform="translate(3 3)"/>
</clipPath>
</defs>
</svg>
